# xmcd
#
# Track frame offsets: 
#        150
#        24407
#        51557
#        74157
#        94957
#        117569
#        135901
#        157380
#        176860
#        196091
#        218558
#        262856
#        284496
#
# Disc length: 4175 seconds
#
# Revision: 1
# Processed by: cddbd v1.5.2PL0 Copyright (c) Steve Scherf et al.
# Submitted via: ExactAudioCopy v0.99pb4
#
DISCID=cc104d0d
DTITLE=Rod Piazza - Keepin' it Real
DYEAR=2004
DGENRE=Blues
TTITLE0=Big Blues Party
TTITLE1=Good Morning Little Schoolgirl
TTITLE2=Baby Please Don't Go
TTITLE3=Just Like a Woman
TTITLE4=Pretty Thing
TTITLE5=Tick Tock
TTITLE6=Moving in a West Coast Way
TTITLE7=Ain't Nothing Happening
TTITLE8=Ain't Nothing Shakin'
TTITLE9=West Coast Midnight Blues
TTITLE10=Buzzin'
TTITLE11=That's What She Hollered
TTITLE12=Devil's Foot
EXTD=Great Album! Support the blues!
EXTT0=
EXTT1=
EXTT2=
EXTT3=
EXTT4=
EXTT5=
EXTT6=
EXTT7=
EXTT8=
EXTT9=
EXTT10=
EXTT11=
EXTT12=
PLAYORDER=
